<?xml version="1.0" encoding="utf-8"?>
<!-- Generator: Adobe Illustrator 20.0.0, SVG Export Plug-In . SVG Version: 6.00 Build 0)  -->
<svg version="1.1" id="图层_1" xmlns="http://www.w3.org/2000/svg" xmlns:xlink="http://www.w3.org/1999/xlink" x="0px" y="0px"
	 viewBox="0 0 9 9" style="enable-background:new 0 0 9 9;" xml:space="preserve">
<style type="text/css">
	.st0{fill:#FFFFFF;}
</style>
<path class="st0" d="M5.9,4.5l2.8-2.8c0.4-0.4,0.4-1,0-1.4s-1-0.4-1.4,0L4.5,3.1L1.7,0.3c-0.4-0.4-1-0.4-1.4,0s-0.4,1,0,1.4l2.8,2.8
	L0.3,7.3c-0.4,0.4-0.4,1,0,1.4s1,0.4,1.4,0l2.8-2.8l2.8,2.8c0.4,0.4,1,0.4,1.4,0s0.4-1,0-1.4L5.9,4.5z"/>
</svg>
