<?xml version="1.0" encoding="utf-8"?>
<!-- Generator: Adobe Illustrator 20.0.0, SVG Export Plug-In . SVG Version: 6.00 Build 0)  -->
<svg version="1.1" id="图层_1" xmlns="http://www.w3.org/2000/svg" xmlns:xlink="http://www.w3.org/1999/xlink" x="0px" y="0px"
	 viewBox="0 0 32 31" style="enable-background:new 0 0 32 31;" xml:space="preserve">
<style type="text/css">
	.st0{fill:#FFFFFF;}
</style>
<path class="st0" d="M27.6,2.8L4.4,0C2,0,0,1.9,0,4.3V21c0,2.4,2,4.3,4.4,4.3L8.9,25l-0.2,6l8.5-7.4l10.4-1.4c2.4,0,4.4-1.9,4.4-4.3
	V7.1C32,4.7,30,2.8,27.6,2.8z M10,15c-1.1,0-2-0.9-2-2s0.9-2,2-2s2,0.9,2,2S11.1,15,10,15z M17,15c-1.1,0-2-0.9-2-2s0.9-2,2-2
	s2,0.9,2,2S18.1,15,17,15z M24,15c-1.1,0-2-0.9-2-2s0.9-2,2-2s2,0.9,2,2S25.1,15,24,15z"/>
</svg>
